<svg width="512" height="512" viewBox="0 0 512 512" fill="none" xmlns="http://www.w3.org/2000/svg">
<path d="M0 256C0 114.615 114.615 0 256 0V0C397.385 0 512 114.615 512 256V256C512 397.385 397.385 512 256 512V512C114.615 512 0 397.385 0 256V256Z" fill="#1D3D36"/>
<path d="M258.159 418.5H137C127.983 418.5 119.335 415.076 112.958 408.981C106.582 402.886 103 394.62 103 386V158.5C103 149.88 106.582 141.614 112.958 135.519C119.335 129.424 127.983 126 137 126H375C384.017 126 392.665 129.424 399.042 135.519C405.418 141.614 409 149.88 409 158.5V241.781" stroke="#CCE1D3" stroke-width="21.3333" stroke-linecap="round" stroke-linejoin="round"/>
<path d="M300.54 366.5C296.964 362.936 294.18 358.716 292.356 354.095C290.533 349.474 289.708 344.548 289.931 339.613C290.153 334.679 291.42 329.839 293.653 325.386C295.887 320.932 299.041 316.957 302.926 313.701C306.81 310.445 311.345 307.975 316.256 306.44C321.167 304.905 326.352 304.336 331.499 304.769C336.646 305.202 341.647 306.628 346.202 308.959C350.757 311.291 354.77 314.48 358 318.335C361.245 314.52 365.262 311.371 369.811 309.074C374.359 306.778 379.345 305.382 384.471 304.97C389.596 304.558 394.756 305.138 399.642 306.676C404.527 308.215 409.038 310.679 412.904 313.922C416.77 317.165 419.913 321.12 422.143 325.551C424.373 329.981 425.646 334.796 425.884 339.708C426.123 344.619 425.323 349.526 423.532 354.135C421.74 358.745 418.995 362.961 415.46 366.533L370.818 412.943C369.225 414.695 367.258 416.101 365.048 417.064C362.838 418.027 360.437 418.526 358.008 418.526C355.58 418.526 353.179 418.027 350.969 417.064C348.759 416.101 346.792 414.695 345.199 412.943L300.54 366.5Z" stroke="#CCE1D3" stroke-width="21.3333" stroke-linecap="round" stroke-linejoin="round"/>
<path d="M324 93.5V158.5" stroke="#CCE1D3" stroke-width="21.3333" stroke-linecap="round" stroke-linejoin="round"/>
<path d="M103 223.5H409" stroke="#CCE1D3" stroke-width="21.3333" stroke-linecap="round" stroke-linejoin="round"/>
<path d="M188 93.5V158.5" stroke="#CCE1D3" stroke-width="21.3333" stroke-linecap="round" stroke-linejoin="round"/>
</svg>
